#N canvas 317 95 614 591 10;
#X obj 294 431 dac~;
#X obj 294 250 clip~ -1 1;
#X obj 315 343 clip~ -1 1;
#X obj 294 227 catch~ out1;
#X obj 315 319 catch~ out2;
#N canvas 335 22 1015 583 eventPlayers 1;
#N canvas 865 228 755 360 playEvent 0;
#X obj 56 185 readsf~ 2;
#X msg 56 160 start;
#X obj 56 23 inlet;
#X obj 56 267 throw~ out1;
#X obj 81 291 throw~ out2;
#X msg 83 108 open \$1.wav;
#X obj 56 84 delay 50;
#X obj 56 216 *~;
#X obj 82 240 *~;
#X obj 185 183 line~;
#X obj 56 60 t b f b;
#X msg 185 109 1 10;
#X connect 0 0 7 0;
#X connect 0 1 8 0;
#X connect 1 0 0 0;
#X connect 2 0 10 0;
#X connect 5 0 0 0;
#X connect 6 0 1 0;
#X connect 7 0 3 0;
#X connect 8 0 4 0;
#X connect 9 0 7 1;
#X connect 9 0 8 1;
#X connect 10 0 6 0;
#X connect 10 1 5 0;
#X connect 10 2 11 0;
#X connect 11 0 9 0;
#X restore 110 135 pd playEvent;
#X obj 110 68 r playSoundfile;
#X obj 112 242 r pdaction;
#X text 110 186 An Integer is send from max and simply .wav appended
;
#X obj 112 280 route exampleAction;
#X connect 1 0 0 0;
#X connect 2 0 4 0;
#X restore 297 142 pd eventPlayers;
#X connect 1 0 0 0;
#X connect 2 0 0 1;
#X connect 3 0 1 0;
#X connect 4 0 2 0;
